<svg xmlns="http://www.w3.org/2000/svg" width="85" height="25" fill="none"><path d="M68.141 20.936H16.93l4.079 4.043 47.133-4.043ZM21.673 4.571v.612c-.956-.6-1.803-.948-2.977-.948-3.582 0-6.317 3.24-6.317 7.222 0 3.984 2.723 7.223 6.317 7.223 1.162 0 2.021-.348 2.977-.948v.612h3.158V4.571h-3.158Zm-2.965 10.798c-1.766 0-3.061-1.728-3.061-3.912 0-2.183 1.295-3.91 3.061-3.91 1.767 0 3.026 1.727 3.026 3.91 0 2.184-1.247 3.912-3.026 3.912ZM46.94 4.571v8.098c0 1.524-1.053 2.796-2.59 2.796-1.536 0-2.59-1.284-2.59-2.796V4.571h-3.158v8.098c0 3.324 2.288 6.023 5.64 6.023 1.549 0 2.686-.852 2.686-.852v.516h3.158V4.583h-3.158l.012-.012Zm29.381 13.785v-8.098c0-1.524 1.053-2.796 2.59-2.796s2.59 1.284 2.59 2.796v8.098h3.158v-8.098c0-3.323-2.287-6.023-5.639-6.023-1.549 0-2.686.852-2.686.852V4.57h-3.159v13.773h3.159l-.013.012Z" fill="#B21E23"/><path d="M3.304 18.356v-5.339h2.335l4.042 5.339h4.126l-4.876-6.443a5.916 5.916 0 0 0 2.517-4.835c0-3.275-2.687-5.938-5.99-5.938H.012v17.204h3.304l-.012.012Zm0-13.941h2.154c1.476 0 2.686 1.2 2.686 2.663 0 1.464-1.21 2.664-2.686 2.664H3.304v-5.34.013Zm55.289 10.678a1.86 1.86 0 0 1-1.052.336c-.52 0-1.489-.396-1.489-1.692v-5.89h2.699V4.57h-2.699V1.14h-3.158v3.43h-1.67v3.276h1.67v5.939c0 3.071 2.335 4.919 4.683 4.919.871 0 2.093-.288 3.086-.864l-2.082-2.747h.012Zm-25.92-4.055 5.409-6.467h-4.429L29.878 9.37V0h-3.256v18.356h3.256v-5.663l4.646 5.663h4.417l-6.268-7.318Z" fill="#B21E23"/><path d="M65.878 4.223c-3.654 0-6.268 3.18-6.268 7.235 0 4.27 3.291 7.234 6.583 7.234 1.658 0 3.8-.564 5.59-3.083L69 14.013c-2.154 3.143-5.748 1.548-6.16-1.596h9.089c.774-4.943-2.445-8.194-6.039-8.194h-.012Zm2.747 5.459H62.95c.665-3.227 5.07-3.407 5.675 0Z" fill="#B21E23"/></svg>