<?xml version="1.0" standalone="no"?>
<!DOCTYPE svg PUBLIC "-//W3C//DTD SVG 1.0//EN" "http://www.w3.org/TR/2001/REC-SVG-20010904/DTD/svg10.dtd">
<svg xmlns="http://www.w3.org/2000/svg" xmlns:xlink="http://www.w3.org/1999/xlink" id="body_1" width="192" height="192">
<g transform="matrix(9.6 0 0 9.6 0 0)">
	<g>
        <path d="M0 0L20 0L20 20L0 20z" stroke="none" fill="none" />
	</g>
	<g>
        <path d="M10 2C 5.58 2 2 5.58 2 10C 2 14.42 5.58 18 10 18C 14.42 18 18 14.42 18 10C 18 5.58 14.42 2 10 2zM8 12.59L8 7.41C 8 7.02 8.44 6.7799997 8.77 6.99L8.77 6.99L12.84 9.58C 13.150001 9.78 13.150001 10.23 12.84 10.42L12.84 10.42L8.77 13.01C 8.44 13.22 8 12.98 8 12.59z" stroke="none" fill="#FFFFFF" fill-rule="nonzero" />
	</g>
</g>
</svg>