<svg version="1.1" id="Layer_1" xmlns="http://www.w3.org/2000/svg" xmlns:xlink="http://www.w3.org/1999/xlink" x="0px" y="0px" viewBox="0 0 121 121" style="enable-background:new 0 0 121 121;" xml:space="preserve">
<style type="text/css">
	.st0{opacity:0.7;fill:#424242;enable-background:new    ;}
	.st1{fill:#FFFFFF;}
</style>
<title>play_large</title>
<g id="Layer_2">
	<g id="play_large">
		<circle class="st0" cx="60.5" cy="60.5" r="60.5"></circle>
	</g>
</g>
<path class="st1" d="M61.4,94.8c6,0,11.8-1.6,17-4.5c2.3-1.3,3.1-4.3,1.8-6.6c-1.3-2.3-4.3-3.1-6.6-1.8c-3.7,2.1-7.9,3.2-12.2,3.2
	c-13.6,0-24.6-11.1-24.6-24.6c0-13.6,11-24.6,24.6-24.6c5,0,9.7,1.5,13.8,4.3l-3.8,1.7c-2.1,0.9-1.8,3.1,0.7,4.9l14.4,10.5
	c2.5,1.8,4.7,0.8,5-2.2l1.9-17.7c0.3-3-1.4-4.6-3.9-3.5c-2.4,1.1-4.4,2-4.4,2c-6.4-6.1-14.8-9.5-23.7-9.5
	c-18.9,0-34.3,15.4-34.3,34.3C27.1,79.4,42.4,94.8,61.4,94.8z"></path>
</svg>