<svg xmlns="http://www.w3.org/2000/svg" viewBox="0 0 79 62"><defs><style>.cls-1{fill:#424242;}.cls-1,.cls-3{opacity:0.7;}.cls-2{fill:none;stroke:#fff;stroke-miterlimit:10;stroke-width:0.25px;}.cls-4{fill:#fff;}</style></defs><title>sound_off</title><g id="Layer_2" data-name="Layer 2"><g id="sound_off"><rect class="cls-1" width="79" height="62" rx="14" ry="14"></rect><path class="cls-2" d="M45.82,18.94"></path><g class="cls-3"><path class="cls-4" d="M41,19.11c0-1.66-1.05-1.26-1.67-.8l-5.49,4.07L41,27.21Z"></path><path class="cls-4" d="M24,26a2,2,0,0,0-2,2v6a2,2,0,0,0,2,2h4.95l10.38,7.7c.62.46,1.67.85,1.67-.8V34.44L28.49,26Z"></path><path class="cls-4" d="M49.82,44.07a1,1,0,1,0,1,1.75,16.7,16.7,0,0,0,3.39-2.48l-1.7-1.15A14.71,14.71,0,0,1,49.82,44.07Z"></path><path class="cls-4" d="M59.41,31.21a16.7,16.7,0,0,0-8.62-14.61,1,1,0,0,0-1,1.75,14.65,14.65,0,0,1,6.23,19l1.68,1.13A16.64,16.64,0,0,0,59.41,31.21Z"></path><path class="cls-4" d="M46.63,38.6a1,1,0,1,0,.94,1.77,10.44,10.44,0,0,0,1.15-.71L46.9,38.43Z"></path><path class="cls-4" d="M53.08,31.21a10.34,10.34,0,0,0-5.51-9.15,1,1,0,0,0-.94,1.77,8.3,8.3,0,0,1,4,9.91l1.71,1.15A10.32,10.32,0,0,0,53.08,31.21Z"></path></g><g class="cls-3"><path class="cls-4" d="M62,46a1,1,0,0,1-.56-.17l-40-27a1,1,0,1,1,1.12-1.66l40,27A1,1,0,0,1,62,46Z"></path></g></g></g></svg>