<svg xmlns="http://www.w3.org/2000/svg" viewBox="0 0 79 62"><defs><style>.cls-1{fill:#424242;}.cls-1,.cls-2{opacity:0.7;}.cls-3{fill:#fff;}.cls-4{fill:none;stroke:#fff;stroke-miterlimit:10;stroke-width:0.25px;}</style></defs><title>sound_on</title><g id="Layer_2" data-name="Layer 2"><g id="sound_on"><rect class="cls-1" width="79" height="62" rx="14" ry="14"></rect><g class="cls-2"><path class="cls-3" d="M39.33,18.27,28.93,26H24a2,2,0,0,0-2,2v6a2,2,0,0,0,2,2h4.95l10.38,7.71c.62.46,1.67.86,1.67-.81V19.08C41,17.42,39.95,17.82,39.33,18.27Z"></path></g><path class="cls-4" d="M45.82,18.94"></path><g class="cls-2"><path class="cls-3" d="M50.3,45.94a1,1,0,0,1-.48-1.87,14.68,14.68,0,0,0,0-25.71,1,1,0,0,1,1-1.75,16.68,16.68,0,0,1,0,29.21A1,1,0,0,1,50.3,45.94Z"></path></g><g class="cls-2"><path class="cls-3" d="M47.1,40.48a1,1,0,0,1-.47-1.88,8.35,8.35,0,0,0,0-14.77,1,1,0,0,1,.94-1.77,10.35,10.35,0,0,1,0,18.31A1,1,0,0,1,47.1,40.48Z"></path></g></g></g></svg>