<svg xmlns="http://www.w3.org/2000/svg" width="104" height="39" fill="none"><g clip-path="url(#a)" fill="#B21E23"><path d="M78.324 29.933H26.108l4.158 4.262 48.058-4.262ZM30.945 12.684v.645c-.975-.633-1.839-1-3.036-1-3.652 0-6.44 3.415-6.44 7.614 0 4.198 2.776 7.612 6.44 7.612 1.185 0 2.06-.366 3.036-.999v.645h3.22V12.684h-3.22Zm-3.023 11.381c-1.802 0-3.122-1.82-3.122-4.122 0-2.302 1.32-4.123 3.122-4.123 1.801 0 3.084 1.821 3.084 4.123 0 2.301-1.27 4.122-3.084 4.122Zm28.785-11.381v8.536c0 1.606-1.073 2.946-2.64 2.946-1.567 0-2.64-1.353-2.64-2.946v-8.536h-3.221v8.536c0 3.503 2.332 6.348 5.75 6.348 1.579 0 2.739-.898 2.739-.898v.544h3.22V12.697h-3.22l.012-.013Zm29.958 14.53v-8.536c0-1.606 1.073-2.947 2.64-2.947 1.567 0 2.64 1.354 2.64 2.947v8.536h3.22v-8.536c0-3.503-2.331-6.348-5.749-6.348-1.58 0-2.74.898-2.74.898v-.544h-3.22V27.2h3.22l-.011.013Z"/><path d="M12.215 27.214v-5.627h2.381l4.121 5.627h4.208l-4.973-6.79a6.3 6.3 0 0 0 2.567-5.097c0-3.453-2.74-6.26-6.108-6.26H8.86v18.134h3.368l-.012.013Zm0-14.694h2.196c1.505 0 2.74 1.264 2.74 2.807s-1.235 2.807-2.74 2.807h-2.196v-5.627.013Zm56.374 11.254a1.855 1.855 0 0 1-1.073.354c-.531 0-1.518-.417-1.518-1.783v-6.209h2.751v-3.452h-2.751V9.067h-3.22v3.617h-1.703v3.452h1.703v6.26c0 3.237 2.38 5.185 4.774 5.185.889 0 2.135-.304 3.147-.91l-2.122-2.897h.012ZM42.16 19.5l5.515-6.816H43.16l-3.85 5.058V7.866h-3.319v19.348h3.319v-5.969l4.738 5.969h4.503l-6.39-7.714Z"/><path d="M76.016 12.317c-3.726 0-6.39 3.351-6.39 7.626 0 4.502 3.355 7.625 6.711 7.625 1.69 0 3.874-.594 5.7-3.25L79.2 22.636c-2.196 3.313-5.86 1.631-6.28-1.682h9.266c.79-5.21-2.493-8.637-6.157-8.637h-.013Zm2.801 5.754h-5.786c.678-3.402 5.17-3.591 5.786 0Z"/></g><defs><clipPath id="a"><path fill="#fff" d="M0 0h104v39H0z"/></clipPath></defs></svg>