<svg xmlns="http://www.w3.org/2000/svg" width="141" height="51" fill="none"><g clip-path="url(#a)" fill="#fff"><path d="M106.189 39.139H35.396l5.638 5.574 65.155-5.574ZM41.955 16.598v.837c-1.319-.825-2.489-1.304-4.107-1.304-4.953 0-8.724 4.466-8.724 9.966 0 5.5 3.77 9.966 8.724 9.966 1.618 0 2.788-.48 4.107-1.304v.836h4.356V16.61h-4.356v-.012Zm-4.107 14.876c-2.44 0-4.231-2.375-4.231-5.39 0-3.014 1.792-5.389 4.231-5.389 2.44 0 4.17 2.387 4.17 5.39 0 3.002-1.73 5.389-4.17 5.389Zm39.031-14.876v11.16c0 2.091-1.457 3.863-3.572 3.863-2.116 0-3.572-1.771-3.572-3.863v-11.16h-4.356v11.16c0 4.577 3.16 8.305 7.803 8.305 2.14 0 3.709-1.169 3.709-1.169v.701h4.356V16.61h-4.356l-.012-.012Zm40.623 18.985v-11.16c0-2.091 1.456-3.863 3.572-3.863s3.572 1.772 3.572 3.863v11.16h4.356v-11.16c0-4.577-3.161-8.305-7.803-8.305-2.141 0-3.709 1.17-3.709 1.17v-.702h-4.356V35.57h4.356l.012.012Z"/><path d="M16.553 35.583v-7.358h3.224l5.588 7.358h5.713l-6.746-8.871c2.103-1.489 3.485-3.913 3.485-6.669 0-4.515-3.71-8.182-8.277-8.182h-7.53v23.722h4.556-.013Zm0-19.219h2.975c2.053 0 3.721 1.649 3.721 3.68 0 2.03-1.68 3.678-3.721 3.678h-2.975v-7.358Zm76.431 14.728c-.386.259-.884.468-1.456.468-.71 0-2.054-.542-2.054-2.326v-8.12h3.734V16.61h-3.734v-4.737h-4.356v4.737h-2.303v4.504h2.303v8.194c0 4.245 3.236 6.767 6.484 6.767 1.207 0 2.888-.393 4.27-1.193l-2.876-3.777-.012-.013Zm-35.832-5.598 7.48-8.896H58.52l-5.227 6.607V10.286H48.8v25.297h4.492v-7.8l6.423 7.8h6.11l-8.674-10.09Z"/><path d="M103.052 16.106c-5.04 0-8.662 4.38-8.662 9.978 0 5.882 4.543 9.979 9.098 9.979 2.302 0 5.24-.775 7.716-4.245l-3.845-2.202c-2.975 4.343-7.94 2.14-8.513-2.203h12.558c1.07-6.816-3.386-11.307-8.352-11.307Zm3.809 7.53h-7.854c.921-4.442 7.008-4.7 7.854 0Z"/></g><defs><clipPath id="a"><path fill="#fff" d="M0 0h141v51H0z"/></clipPath></defs></svg>