<svg width="114" height="42" fill="none" xmlns="http://www.w3.org/2000/svg"><g clip-path="url(#a)" fill="#B21E23"><path d="M85.32 31.81H28.44l4.53 4.53 52.35-4.53ZM33.71 13.49v.68c-1.06-.67-2-1.06-3.3-1.06-3.98 0-7.01 3.63-7.01 8.1s3.03 8.1 7.01 8.1c1.3 0 2.24-.39 3.3-1.06v.68h3.5V13.5h-3.5v-.01Zm-3.3 12.09c-1.96 0-3.4-1.93-3.4-4.38s1.44-4.38 3.4-4.38 3.35 1.94 3.35 4.38-1.39 4.38-3.35 4.38Zm31.36-12.09v9.07c0 1.7-1.17 3.14-2.87 3.14-1.7 0-2.87-1.44-2.87-3.14v-9.07h-3.5v9.07c0 3.72 2.54 6.75 6.27 6.75 1.72 0 2.98-.95 2.98-.95v.57h3.5V13.5h-3.5l-.01-.01Zm32.64 15.43v-9.07c0-1.7 1.17-3.14 2.87-3.14 1.7 0 2.87 1.44 2.87 3.14v9.07h3.5v-9.07c0-3.72-2.54-6.75-6.27-6.75-1.72 0-2.98.95-2.98.95v-.57h-3.5v15.43h3.5l.01.01Z"/><path d="M13.3 28.92v-5.98h2.59l4.49 5.98h4.59l-5.42-7.21a6.652 6.652 0 0 0 2.8-5.42c0-3.67-2.98-6.65-6.65-6.65H9.65v19.28h3.66-.01Zm0-15.62h2.39c1.65 0 2.99 1.34 2.99 2.99 0 1.65-1.35 2.99-2.99 2.99H13.3V13.3Zm61.41 11.97c-.31.21-.71.38-1.17.38-.57 0-1.65-.44-1.65-1.89v-6.6h3V13.5h-3V9.65h-3.5v3.85h-1.85v3.66h1.85v6.66c0 3.45 2.6 5.5 5.21 5.5.97 0 2.32-.32 3.43-.97l-2.31-3.07-.01-.01Zm-28.79-4.55 6.01-7.23h-4.91l-4.2 5.37V8.36h-3.61v20.56h3.61v-6.34l5.16 6.34h4.91l-6.97-8.2Z"/><path d="M82.8 13.09c-4.05 0-6.96 3.56-6.96 8.11 0 4.78 3.65 8.11 7.31 8.11 1.85 0 4.21-.63 6.2-3.45l-3.09-1.79c-2.39 3.53-6.38 1.74-6.84-1.79h10.09c.86-5.54-2.72-9.19-6.71-9.19Zm3.06 6.12h-6.31c.74-3.61 5.63-3.82 6.31 0Z"/></g><defs><clipPath id="a"><path fill="#fff" d="M0 0h113.29v41.45H0z"/></clipPath></defs></svg>