<svg xmlns="http://www.w3.org/2000/svg" width="71" height="22" fill="none"><path d="M56.825 18.04h-42.32l3.37 3.37 38.95-3.37ZM18.425 4.4v.51c-.79-.5-1.49-.79-2.46-.79-2.96 0-5.22 2.7-5.22 6.02 0 3.32 2.25 6.02 5.22 6.02.96 0 1.67-.29 2.46-.79v.51h2.61V4.4h-2.61Zm-2.45 9c-1.46 0-2.53-1.44-2.53-3.26 0-1.82 1.07-3.26 2.53-3.26 1.46 0 2.5 1.44 2.5 3.26 0 1.82-1.03 3.26-2.5 3.26Zm23.33-9v6.75c0 1.27-.87 2.33-2.14 2.33s-2.14-1.07-2.14-2.33V4.4h-2.61v6.75c0 2.77 1.89 5.02 4.66 5.02 1.28 0 2.22-.71 2.22-.71v.43h2.61V4.41h-2.61l.01-.01Zm24.28 11.49V9.14c0-1.27.87-2.33 2.14-2.33s2.14 1.07 2.14 2.33v6.75h2.61V9.14c0-2.77-1.89-5.02-4.66-5.02-1.28 0-2.22.71-2.22.71V4.4h-2.61v11.48h2.61l-.01.01Z" fill="#B21E23"/><path d="M3.245 15.89v-4.45h1.93l3.34 4.45h3.41l-4.03-5.37c1.26-.9 2.08-2.37 2.08-4.03 0-2.73-2.22-4.95-4.95-4.95h-4.5v14.34h2.73l-.01.01Zm0-11.62h1.78c1.22 0 2.22 1 2.22 2.22 0 1.22-1 2.22-2.22 2.22h-1.78V4.26v.01Zm45.69 8.9c-.23.16-.53.28-.87.28-.43 0-1.23-.33-1.23-1.41V7.13h2.23V4.4h-2.23V1.54h-2.61V4.4h-1.38v2.73h1.38v4.95c0 2.56 1.93 4.1 3.87 4.1.72 0 1.73-.24 2.55-.72l-1.72-2.29h.01Zm-21.42-3.38 4.47-5.39h-3.66l-3.12 4V.59h-2.69v15.3h2.69v-4.72l3.84 4.72h3.65l-5.18-6.1Z" fill="#B21E23"/><path d="M54.955 4.11c-3.02 0-5.18 2.65-5.18 6.03 0 3.56 2.72 6.03 5.44 6.03 1.37 0 3.14-.47 4.62-2.57l-2.3-1.33c-1.78 2.62-4.75 1.29-5.09-1.33h7.51c.64-4.12-2.02-6.83-4.99-6.83h-.01Zm2.27 4.55h-4.69c.55-2.69 4.19-2.84 4.69 0Z" fill="#B21E23"/></svg>